<?xml version="1.0" encoding="UTF-8" standalone="no"?>
<!-- Created with Inkscape (http://www.inkscape.org/) -->

<svg
   width="144.00003"
   height="124.44311"
   viewBox="0 0 38.100008 32.925572"
   version="1.1"
   id="svg1"
   xml:space="preserve"
   xmlns="http://www.w3.org/2000/svg"
   xmlns:svg="http://www.w3.org/2000/svg"><defs
     id="defs1" /><g
     id="layer1"
     transform="translate(-98.056549,-128.05794)"><path
       id="path33"
       style="opacity:1;fill:#424242;fill-opacity:1;stroke-width:0.754737;stroke-linecap:round;stroke-linejoin:round"
       d="m 107.59838,128.05794 -2.64158,8.30215 5.37752,2.45285 4.81149,-2.45285 1.41511,-6.50961 z m 19.11763,0.1296 -8.55719,1.63622 0.4072,5.89642 4.44883,3.06021 6.39761,-1.85886 z m -22.4373,9.72757 -6.222161,6.09834 5.638431,7.1936 5.1741,-4.19675 0.0224,-5.39963 z m 25.65671,0 -4.61395,3.69556 0.024,5.39963 5.17411,4.19675 5.63698,-7.1936 z m -12.90283,0.1432 -5.09445,3.01901 v 6.41521 l 5.28317,3.01901 5.09451,-3.01901 -0.0944,-6.32089 z m -6.69827,12.17019 -5.37752,2.45286 2.64158,8.30215 8.96254,-1.79246 -1.41511,-6.50969 z m 12.68021,0.032 -4.44883,3.06021 -0.4072,5.89642 8.55719,1.6363 2.69613,-8.73407 z" /></g></svg>
