<svg width="18" height="18" viewBox="0 0 18 18" fill="none" xmlns="http://www.w3.org/2000/svg">
<path d="M13.1248 7.12512C13.1248 4.84512 11.2798 3.00012 8.99976 3.00012C6.71976 3.00012 4.87476 4.84512 4.87476 7.12512C4.87476 9.15012 6.32976 10.8226 8.24976 11.1751L8.24976 12.7501H6.74976L6.74976 14.2501H8.24976V15.7501H9.74976L9.74976 14.2501H11.2498V12.7501H9.74976V11.1751C11.6698 10.8226 13.1248 9.15012 13.1248 7.12512ZM6.37476 7.12512C6.37476 5.67762 7.55226 4.50012 8.99976 4.50012C10.4473 4.50012 11.6248 5.67762 11.6248 7.12512C11.6248 8.57262 10.4473 9.75012 8.99976 9.75012C7.55226 9.75012 6.37476 8.57262 6.37476 7.12512Z" fill="#424242"/>
</svg>
