<svg width="18" height="18" viewBox="0 0 18 18" fill="none" xmlns="http://www.w3.org/2000/svg">
<path d="M7.125 8.24963C8.5725 8.24963 9.75 9.42713 9.75 10.8746C9.75 12.3221 8.5725 13.4996 7.125 13.4996C5.6775 13.4996 4.5 12.3221 4.5 10.8746C4.5 9.42713 5.6775 8.24963 7.125 8.24963ZM7.125 6.74963C4.845 6.74963 3 8.59463 3 10.8746C3 13.1546 4.845 14.9996 7.125 14.9996C9.405 14.9996 11.25 13.1546 11.25 10.8746C11.25 10.0046 10.98 9.20213 10.5225 8.53463L13.5 5.56463V7.49963H15V2.99963L10.5 2.99963V4.49963L12.435 4.49963L9.4575 7.47713C8.7975 7.01963 7.995 6.74963 7.125 6.74963Z" fill="#424242"/>
</svg>
