<?xml version="1.0" encoding="UTF-8" standalone="no"?>
<!-- Created with Inkscape (http://www.inkscape.org/) -->

<svg
   width="18.000193"
   height="15.555552"
   viewBox="0 0 4.762551 4.1157399"
   version="1.1"
   id="svg1"
   xml:space="preserve"
   xmlns="http://www.w3.org/2000/svg"
   xmlns:svg="http://www.w3.org/2000/svg"><defs
     id="defs1" /><g
     id="layer1"
     transform="translate(-98.056549,-128.05794)"><path
       id="path33"
       style="opacity:1;fill:#424242;fill-opacity:1;stroke-width:0.0943432;stroke-linecap:round;stroke-linejoin:round"
       d="m 99.249291,128.05794 -0.330202,1.03778 0.672198,0.30661 0.601443,-0.30661 0.17689,-0.81371 z m 2.389729,0.0162 -1.06966,0.20453 0.0509,0.73706 0.55611,0.38253 0.79971,-0.23236 z m -2.804692,1.21596 -0.777779,0.7623 0.704811,0.89921 0.64677,-0.5246 0.0028,-0.67496 z m 3.207122,0 -0.57675,0.46195 0.003,0.67496 0.64677,0.5246 0.70463,-0.89921 z m -1.61287,0.0179 -0.636813,0.37738 v 0.80191 l 0.660403,0.37738 0.63682,-0.37738 -0.0118,-0.79012 z m -0.837293,1.52129 -0.672198,0.30661 0.330202,1.03778 1.120329,-0.22406 -0.17689,-0.81372 z m 1.585043,0.004 -0.55611,0.38253 -0.0509,0.73706 1.06966,0.20454 0.33702,-1.09177 z" /></g></svg>
